<svg xmlns="http://www.w3.org/2000/svg" xmlns:xlink="http://www.w3.org/1999/xlink" viewBox="0 0 419.8 109.49"><defs><style>.cls-1{isolation:isolate;}.cls-2{fill:url(#linear-gradient);}.cls-3{mix-blend-mode:multiply;fill:url(#linear-gradient-2);}.cls-4{fill:#172b4d;}</style><linearGradient id="linear-gradient" x1="65" y1="41.87" x2="16.7" y2="79.95" gradientUnits="userSpaceOnUse"><stop offset="0" stop-color="#8160ef"/><stop offset="1" stop-color="#5927ff"/></linearGradient><linearGradient id="linear-gradient-2" x1="26.53" y1="92.3" x2="124.97" y2="31.01" gradientUnits="userSpaceOnUse"><stop offset="0" stop-color="#fd8c8c"/><stop offset="1" stop-color="#fc3c80"/></linearGradient></defs><title>dark</title><g class="cls-1"><g id="Layer_2" data-name="Layer 2"><g id="Layer_1-2" data-name="Layer 1"><path class="cls-2" d="M0,32.5a16.14,16.14,0,0,1,2.15-8.11,13.61,13.61,0,0,1,6.7-6c7.22-2.82,13.21-.13,17.37,3.05C29.75,24.12,66.15,51.58,77,59.77a25.14,25.14,0,0,1,9.28,13.74,24.47,24.47,0,0,1-2.43,18c-9,16.82-24.81,18-28.74,17.93H13.36S0,110.21,0,94.37Z"/><path class="cls-3" d="M110.28,94.17a16.14,16.14,0,0,1-2.15,8.11,13.57,13.57,0,0,1-6.7,6c-7.22,2.82-13.21.13-17.37-3-3.53-2.7-39.92-30.16-50.78-38.35A25.11,25.11,0,0,1,24,53.16a24.43,24.43,0,0,1,2.44-18c9-16.82,24.81-18,28.74-17.93H96.93s13.35-.74,13.35,15.11Z"/><path class="cls-4" d="M197.55,40.42A34.48,34.48,0,0,0,187,33.31a33.52,33.52,0,0,0-25.84,0,33.27,33.27,0,0,0-17.7,17.62,32.29,32.29,0,0,0-2.59,13v32.6a.73.73,0,0,0,.73.72h11.72a.72.72,0,0,0,.73-.72V63.89a19.47,19.47,0,0,1,1.56-7.77,20.11,20.11,0,0,1,10.66-10.67A19.63,19.63,0,0,1,174,43.9a20,20,0,0,1,18.59,12.22,19.47,19.47,0,0,1,1.56,7.77v32.6a.72.72,0,0,0,.72.72H206.6a.73.73,0,0,0,.73-.72V63.89a32.3,32.3,0,0,0-2.6-13A32.75,32.75,0,0,0,197.55,40.42Z"/><path class="cls-4" d="M323.33,57.43c-12.87-2.26-14.64-5.21-14.64-8.06,0-3.94,5.47-6.92,12.73-6.92,7,0,12.06,2.49,12.91,6.34l.21,1h11.79l-.15-1.36C345,38.1,335,31.18,321.42,31.18c-15.05,0-24.77,7.14-24.77,18.19,0,10.41,7.34,16.18,24.55,19.3,12.5,2.26,15.73,4.09,15.73,8.9,0,5-6.38,8.46-15.51,8.46-8.75,0-14.77-4.41-15.54-8.67l-.18-1H293.94l.08,1.29c.67,11.76,11.68,19.67,27.4,19.67,16.9,0,27.4-7.57,27.4-19.74C348.82,66.6,341.44,60.77,323.33,57.43Z"/><path class="cls-4" d="M411,42.34a30.19,30.19,0,0,0-21.53-8.78c-6.61,0-12.61,3.07-16.89,6.07a.72.72,0,0,1-1.13-.6V.73a.73.73,0,0,0-.73-.73H359.93a.73.73,0,0,0-.73.73V96.82a.73.73,0,0,0,.73.73h10.82a.73.73,0,0,0,.73-.73v-33a18,18,0,1,1,36,0v33a.72.72,0,0,0,.73.73h10.81a.72.72,0,0,0,.73-.73v-33A30.63,30.63,0,0,0,411,42.34Z"/><path class="cls-4" d="M250.61,30.7a31.94,31.94,0,0,0-23.42,9.75A32.13,32.13,0,0,0,217.44,64a32.13,32.13,0,0,0,9.75,23.56,31.94,31.94,0,0,0,23.42,9.75A32.86,32.86,0,0,0,270.16,91a.73.73,0,0,1,1.16.59v5a.72.72,0,0,0,.73.72h11a.72.72,0,0,0,.72-.72V64A32.13,32.13,0,0,0,274,40.45,32,32,0,0,0,250.61,30.7Zm14.67,47.91A20.71,20.71,0,0,1,229.91,64a20.71,20.71,0,1,1,35.37,14.6Z"/></g></g></g></svg>