<svg width="19" height="17" viewBox="0 0 19 17" fill="none" xmlns="http://www.w3.org/2000/svg">
<path d="M7.56818 12.2824V11.3673H1.17179L1.16264 15.0276C1.16264 16.0433 1.97706 16.8578 2.99279 16.8578H15.8039C16.8196 16.8578 17.634 16.0433 17.634 15.0276V11.3673H11.2285V12.2824H7.56818ZM16.719 4.04666H13.0495V2.21651L11.2193 0.386353H7.55903L5.72888 2.21651V4.04666H2.07771C1.07113 4.04666 0.247559 4.87023 0.247559 5.87682V8.62205C0.247559 9.63779 1.06198 10.4522 2.07771 10.4522H7.56818V8.62205H11.2285V10.4522H16.719C17.7255 10.4522 18.5491 9.62864 18.5491 8.62205V5.87682C18.5491 4.87023 17.7255 4.04666 16.719 4.04666ZM11.2285 4.04666H7.56818V2.21651H11.2285V4.04666Z" fill="black"/>
</svg>
