<svg width="19" height="20" viewBox="0 0 19 20" fill="none" xmlns="http://www.w3.org/2000/svg">
<path d="M16.2354 2H12.0554C11.6354 0.84 10.5354 0 9.23535 0C7.93535 0 6.83535 0.84 6.41535 2H2.23535C1.13535 2 0.235352 2.9 0.235352 4V18C0.235352 19.1 1.13535 20 2.23535 20H16.2354C17.3354 20 18.2354 19.1 18.2354 18V4C18.2354 2.9 17.3354 2 16.2354 2ZM9.23535 2C9.78535 2 10.2354 2.45 10.2354 3C10.2354 3.55 9.78535 4 9.23535 4C8.68535 4 8.23535 3.55 8.23535 3C8.23535 2.45 8.68535 2 9.23535 2ZM7.23535 16L3.23535 12L4.64535 10.59L7.23535 13.17L13.8254 6.58L15.2354 8L7.23535 16Z" fill="black"/>
</svg>
