<svg xmlns="http://www.w3.org/2000/svg" width="24" height="25" fill="none" viewBox="0 0 24 25">
    <path fill="#252B33" d="M18.298 5.928c-.092-.093-.202-.167-.323-.217-.121-.05-.25-.076-.382-.076-.13 0-.26.026-.381.076s-.231.124-.324.217l-4.89 4.884-4.89-4.894c-.092-.093-.202-.167-.323-.217-.121-.05-.25-.076-.382-.076-.13 0-.26.026-.381.076s-.231.124-.324.217c-.092.092-.166.202-.216.323-.05.121-.076.251-.076.382s.026.261.076.382.124.231.216.324l4.89 4.895-4.89 4.895c-.092.092-.166.202-.216.323-.05.121-.076.251-.076.382s.026.261.076.382.124.231.216.324c.093.092.203.166.324.216.12.05.25.076.381.076s.26-.026.382-.076c.12-.05.23-.123.323-.216l4.89-4.895 4.89 4.895c.093.092.203.166.324.216.12.05.25.076.381.076s.26-.026.382-.076c.12-.05.23-.123.323-.216s.166-.203.216-.324c.05-.121.076-.25.076-.382 0-.13-.026-.26-.076-.382-.05-.12-.123-.23-.216-.323l-4.89-4.895 4.89-4.895c.38-.38.38-1.021 0-1.401z"/>
</svg>
