<svg width="19" height="19" viewBox="0 0 19 19" fill="none" xmlns="http://www.w3.org/2000/svg">
<path d="M9.5 0.785034C4.6875 0.785034 0.75 4.71378 0.75 9.55253C0.75 13.9275 3.9525 17.5588 8.135 18.215V12.09H5.9125V9.55253H8.135V7.61878C8.135 5.42253 9.43875 4.21503 11.4425 4.21503C12.3963 4.21503 13.3938 4.38128 13.3938 4.38128V6.54253H12.2913C11.2063 6.54253 10.865 7.21628 10.865 7.90753V9.55253H13.2975L12.9038 12.09H10.865V18.215C12.9269 17.8894 14.8044 16.8374 16.1587 15.2488C17.5129 13.6603 18.2547 11.64 18.25 9.55253C18.25 4.71378 14.3125 0.785034 9.5 0.785034Z" fill="white"/>
</svg>
