<svg width="20" height="18" viewBox="0 0 20 18" fill="none" xmlns="http://www.w3.org/2000/svg">
<path d="M18.4199 15V16C18.4199 17.1 17.5199 18 16.4199 18H2.41992C1.30992 18 0.419922 17.1 0.419922 16V2C0.419922 0.9 1.30992 0 2.41992 0H16.4199C17.5199 0 18.4199 0.9 18.4199 2V3H9.41992C8.30992 3 7.41992 3.9 7.41992 5V13C7.41992 14.1 8.30992 15 9.41992 15H18.4199ZM9.41992 13H19.4199V5H9.41992V13ZM13.4199 10.5C12.5899 10.5 11.9199 9.83 11.9199 9C11.9199 8.17 12.5899 7.5 13.4199 7.5C14.2499 7.5 14.9199 8.17 14.9199 9C14.9199 9.83 14.2499 10.5 13.4199 10.5Z" fill="#3297F4"/>
</svg>
