<svg width="15" height="13" viewBox="0 0 15 13" fill="none" xmlns="http://www.w3.org/2000/svg">
<path d="M15 1.46657C14.4484 1.7144 13.8558 1.88185 13.2328 1.95754C13.8756 1.56757 14.3565 0.953804 14.5858 0.230763C13.9819 0.594465 13.3209 0.850471 12.6317 0.987653C12.1682 0.485872 11.5543 0.153283 10.8852 0.0415234C10.2162 -0.0702365 9.52948 0.0450851 8.93172 0.369584C8.33395 0.694083 7.85857 1.2096 7.57938 1.83611C7.30018 2.46261 7.2328 3.16505 7.38769 3.83436C6.16402 3.77207 4.96694 3.44959 3.87415 2.88785C2.78135 2.32611 1.81726 1.53768 1.04444 0.573708C0.78019 1.03588 0.628248 1.57173 0.628248 2.14241C0.627953 2.65616 0.75273 3.16203 0.991508 3.61515C1.23029 4.06827 1.57568 4.45463 1.99705 4.73995C1.50837 4.72418 1.03048 4.5903 0.603145 4.34945V4.38964C0.603095 5.11018 0.848916 5.80855 1.2989 6.36625C1.74888 6.92395 2.3753 7.30663 3.07188 7.44935C2.61855 7.57374 2.14327 7.59206 1.68193 7.50293C1.87847 8.12292 2.26129 8.66507 2.77682 9.0535C3.29235 9.44192 3.91477 9.65717 4.55695 9.66911C3.46681 10.5368 2.12051 11.0075 0.734608 11.0054C0.489109 11.0055 0.243819 10.9909 0 10.9618C1.40677 11.8789 3.04435 12.3657 4.71681 12.3638C10.3783 12.3638 13.4733 7.60943 13.4733 3.48606C13.4733 3.35209 13.47 3.21679 13.4641 3.08283C14.0661 2.64141 14.5857 2.09478 14.9987 1.46858L15 1.46657Z" fill="white"/>
</svg>
